<mxfile>
    <diagram id="uHsP9dGYsFM0qalL6mqU" name="Lesson 3">
        <mxGraphModel dx="810" dy="680" grid="1" gridSize="10" guides="1" tooltips="1" connect="1" arrows="1" fold="1" page="1" pageScale="1" pageWidth="827" pageHeight="1169" math="0" shadow="0">
            <root>
                <mxCell id="0"/>
                <mxCell id="1" parent="0"/>
                <mxCell id="G58wGOxVRkuHDq5vF4F3-3" value="" style="edgeStyle=orthogonalEdgeStyle;rounded=0;orthogonalLoop=1;jettySize=auto;html=1;" parent="1" source="G58wGOxVRkuHDq5vF4F3-1" target="G58wGOxVRkuHDq5vF4F3-2" edge="1">
                    <mxGeometry relative="1" as="geometry"/>
                </mxCell>
                <mxCell id="G58wGOxVRkuHDq5vF4F3-1" value="Beginning" style="ellipse;whiteSpace=wrap;html=1;" parent="1" vertex="1">
                    <mxGeometry x="320" y="20" width="170" height="50" as="geometry"/>
                </mxCell>
                <mxCell id="19" style="edgeStyle=orthogonalEdgeStyle;rounded=0;orthogonalLoop=1;jettySize=auto;html=1;" parent="1" source="G58wGOxVRkuHDq5vF4F3-2" target="G58wGOxVRkuHDq5vF4F3-6" edge="1">
                    <mxGeometry relative="1" as="geometry"/>
                </mxCell>
                <mxCell id="G58wGOxVRkuHDq5vF4F3-2" value="Input&lt;br&gt;Please enter&lt;br&gt;x" style="shape=parallelogram;perimeter=parallelogramPerimeter;whiteSpace=wrap;html=1;fixedSize=1;" parent="1" vertex="1">
                    <mxGeometry x="345" y="130" width="120" height="50" as="geometry"/>
                </mxCell>
                <mxCell id="G58wGOxVRkuHDq5vF4F3-15" style="edgeStyle=orthogonalEdgeStyle;rounded=0;orthogonalLoop=1;jettySize=auto;html=1;entryX=0.5;entryY=0;entryDx=0;entryDy=0;" parent="1" source="G58wGOxVRkuHDq5vF4F3-6" target="G58wGOxVRkuHDq5vF4F3-9" edge="1">
                    <mxGeometry relative="1" as="geometry"/>
                </mxCell>
                <mxCell id="20" style="edgeStyle=orthogonalEdgeStyle;rounded=0;orthogonalLoop=1;jettySize=auto;html=1;exitX=0;exitY=0.5;exitDx=0;exitDy=0;entryX=0.5;entryY=0;entryDx=0;entryDy=0;" parent="1" source="G58wGOxVRkuHDq5vF4F3-6" target="3" edge="1">
                    <mxGeometry relative="1" as="geometry"/>
                </mxCell>
                <mxCell id="G58wGOxVRkuHDq5vF4F3-6" value="x &amp;gt; 0" style="rhombus;whiteSpace=wrap;html=1;" parent="1" vertex="1">
                    <mxGeometry x="330" y="210" width="150" height="130" as="geometry"/>
                </mxCell>
                <mxCell id="G58wGOxVRkuHDq5vF4F3-7" value="YES" style="text;html=1;align=center;verticalAlign=middle;resizable=0;points=[];autosize=1;strokeColor=none;" parent="1" vertex="1">
                    <mxGeometry x="440" y="210" width="40" height="20" as="geometry"/>
                </mxCell>
                <mxCell id="G58wGOxVRkuHDq5vF4F3-8" value="NO" style="text;html=1;align=center;verticalAlign=middle;resizable=0;points=[];autosize=1;strokeColor=none;" parent="1" vertex="1">
                    <mxGeometry x="330" y="210" width="30" height="20" as="geometry"/>
                </mxCell>
                <mxCell id="13" style="edgeStyle=orthogonalEdgeStyle;rounded=0;orthogonalLoop=1;jettySize=auto;html=1;" parent="1" source="G58wGOxVRkuHDq5vF4F3-9" target="G58wGOxVRkuHDq5vF4F3-10" edge="1">
                    <mxGeometry relative="1" as="geometry"/>
                </mxCell>
                <mxCell id="G58wGOxVRkuHDq5vF4F3-9" value="y = 2x - 10" style="rounded=0;whiteSpace=wrap;html=1;" parent="1" vertex="1">
                    <mxGeometry x="500" y="340" width="120" height="60" as="geometry"/>
                </mxCell>
                <mxCell id="8KYcwUQdonfME-xwdH1b-20" style="edgeStyle=orthogonalEdgeStyle;rounded=0;orthogonalLoop=1;jettySize=auto;html=1;entryX=0.5;entryY=0;entryDx=0;entryDy=0;" parent="1" source="G58wGOxVRkuHDq5vF4F3-10" target="G58wGOxVRkuHDq5vF4F3-12" edge="1">
                    <mxGeometry relative="1" as="geometry"/>
                </mxCell>
                <mxCell id="G58wGOxVRkuHDq5vF4F3-10" value="Output&lt;br&gt;y =" style="shape=parallelogram;perimeter=parallelogramPerimeter;whiteSpace=wrap;html=1;fixedSize=1;" parent="1" vertex="1">
                    <mxGeometry x="370" y="585" width="120" height="60" as="geometry"/>
                </mxCell>
                <mxCell id="G58wGOxVRkuHDq5vF4F3-12" value="END" style="ellipse;whiteSpace=wrap;html=1;" parent="1" vertex="1">
                    <mxGeometry x="345" y="750" width="170" height="50" as="geometry"/>
                </mxCell>
                <mxCell id="10" style="edgeStyle=orthogonalEdgeStyle;rounded=0;orthogonalLoop=1;jettySize=auto;html=1;" parent="1" source="3" edge="1">
                    <mxGeometry relative="1" as="geometry">
                        <mxPoint x="120" y="480" as="targetPoint"/>
                    </mxGeometry>
                </mxCell>
                <mxCell id="11" style="edgeStyle=orthogonalEdgeStyle;rounded=0;orthogonalLoop=1;jettySize=auto;html=1;" parent="1" source="3" edge="1">
                    <mxGeometry relative="1" as="geometry">
                        <mxPoint x="370" y="450" as="targetPoint"/>
                    </mxGeometry>
                </mxCell>
                <mxCell id="3" value="x == 0" style="rhombus;whiteSpace=wrap;html=1;" parent="1" vertex="1">
                    <mxGeometry x="200" y="340" width="150" height="130" as="geometry"/>
                </mxCell>
                <mxCell id="4" value="YES" style="text;html=1;align=center;verticalAlign=middle;resizable=0;points=[];autosize=1;strokeColor=none;" parent="1" vertex="1">
                    <mxGeometry x="310" y="340" width="40" height="20" as="geometry"/>
                </mxCell>
                <mxCell id="5" value="NO" style="text;html=1;align=center;verticalAlign=middle;resizable=0;points=[];autosize=1;strokeColor=none;" parent="1" vertex="1">
                    <mxGeometry x="200" y="340" width="30" height="20" as="geometry"/>
                </mxCell>
                <mxCell id="12" style="edgeStyle=orthogonalEdgeStyle;rounded=0;orthogonalLoop=1;jettySize=auto;html=1;entryX=0.5;entryY=0;entryDx=0;entryDy=0;" parent="1" source="7" target="G58wGOxVRkuHDq5vF4F3-10" edge="1">
                    <mxGeometry relative="1" as="geometry">
                        <Array as="points">
                            <mxPoint x="430" y="480"/>
                        </Array>
                    </mxGeometry>
                </mxCell>
                <mxCell id="7" value="y = 0" style="rounded=0;whiteSpace=wrap;html=1;" parent="1" vertex="1">
                    <mxGeometry x="345" y="450" width="60" height="60" as="geometry"/>
                </mxCell>
                <mxCell id="17" style="edgeStyle=orthogonalEdgeStyle;rounded=0;orthogonalLoop=1;jettySize=auto;html=1;entryX=0;entryY=0.25;entryDx=0;entryDy=0;" parent="1" source="8" target="G58wGOxVRkuHDq5vF4F3-10" edge="1">
                    <mxGeometry relative="1" as="geometry">
                        <mxPoint x="280" y="650" as="targetPoint"/>
                        <Array as="points">
                            <mxPoint x="260" y="510"/>
                            <mxPoint x="260" y="603"/>
                            <mxPoint x="280" y="603"/>
                        </Array>
                    </mxGeometry>
                </mxCell>
                <mxCell id="8" value="y = 2 |x|&amp;nbsp; - 1" style="rounded=0;whiteSpace=wrap;html=1;" parent="1" vertex="1">
                    <mxGeometry x="70" y="480" width="120" height="60" as="geometry"/>
                </mxCell>
            </root>
        </mxGraphModel>
    </diagram>
    <diagram name="Lesson 4.1" id="BS3CV84VaeWmR7PoiHy9">
        &#xa;
        <mxGraphModel dx="950" dy="680" grid="1" gridSize="10" guides="1" tooltips="1" connect="1" arrows="1" fold="1" page="1" pageScale="1" pageWidth="827" pageHeight="1169" math="0" shadow="0">
            &#xa;
            <root>
                &#xa;
                <mxCell id="MUeM2CI-ciQh2O1M9svH-0"/>
                &#xa;
                <mxCell id="MUeM2CI-ciQh2O1M9svH-1" parent="MUeM2CI-ciQh2O1M9svH-0"/>
                &#xa;
                <mxCell id="fAQdRrOhez3WgfIAG_Cw-1" style="edgeStyle=orthogonalEdgeStyle;rounded=0;orthogonalLoop=1;jettySize=auto;html=1;entryX=0.5;entryY=0;entryDx=0;entryDy=0;" parent="MUeM2CI-ciQh2O1M9svH-1" source="MUeM2CI-ciQh2O1M9svH-3" target="MUeM2CI-ciQh2O1M9svH-5" edge="1">
                    &#xa;
                    <mxGeometry relative="1" as="geometry"/>
                    &#xa;
                </mxCell>
                &#xa;
                <mxCell id="MUeM2CI-ciQh2O1M9svH-3" value="Beginning" style="ellipse;whiteSpace=wrap;html=1;" parent="MUeM2CI-ciQh2O1M9svH-1" vertex="1">
                    &#xa;
                    <mxGeometry x="320" y="20" width="170" height="50" as="geometry"/>
                    &#xa;
                </mxCell>
                &#xa;
                <mxCell id="fAQdRrOhez3WgfIAG_Cw-3" style="edgeStyle=orthogonalEdgeStyle;rounded=0;orthogonalLoop=1;jettySize=auto;html=1;exitX=0.5;exitY=1;exitDx=0;exitDy=0;entryX=0.5;entryY=0;entryDx=0;entryDy=0;" parent="MUeM2CI-ciQh2O1M9svH-1" source="MUeM2CI-ciQh2O1M9svH-5" target="fAQdRrOhez3WgfIAG_Cw-0" edge="1">
                    &#xa;
                    <mxGeometry relative="1" as="geometry"/>
                    &#xa;
                </mxCell>
                &#xa;
                <mxCell id="MUeM2CI-ciQh2O1M9svH-5" value="Input&lt;br&gt;Please enter&lt;br&gt;a, b, c" style="shape=parallelogram;perimeter=parallelogramPerimeter;whiteSpace=wrap;html=1;fixedSize=1;" parent="MUeM2CI-ciQh2O1M9svH-1" vertex="1">
                    &#xa;
                    <mxGeometry x="345" y="100" width="120" height="50" as="geometry"/>
                    &#xa;
                </mxCell>
                &#xa;
                <mxCell id="fAQdRrOhez3WgfIAG_Cw-5" style="edgeStyle=orthogonalEdgeStyle;rounded=0;orthogonalLoop=1;jettySize=auto;html=1;entryX=0.5;entryY=0;entryDx=0;entryDy=0;" parent="MUeM2CI-ciQh2O1M9svH-1" source="MUeM2CI-ciQh2O1M9svH-8" target="fAQdRrOhez3WgfIAG_Cw-12" edge="1">
                    &#xa;
                    <mxGeometry relative="1" as="geometry">
                        &#xa;
                        <mxPoint x="540" y="330" as="targetPoint"/>
                        &#xa;
                    </mxGeometry>
                    &#xa;
                </mxCell>
                &#xa;
                <mxCell id="fAQdRrOhez3WgfIAG_Cw-17" style="edgeStyle=orthogonalEdgeStyle;rounded=0;orthogonalLoop=1;jettySize=auto;html=1;exitX=0;exitY=0.5;exitDx=0;exitDy=0;entryX=0.5;entryY=0;entryDx=0;entryDy=0;" parent="MUeM2CI-ciQh2O1M9svH-1" source="MUeM2CI-ciQh2O1M9svH-8" target="fAQdRrOhez3WgfIAG_Cw-9" edge="1">
                    &#xa;
                    <mxGeometry relative="1" as="geometry"/>
                    &#xa;
                </mxCell>
                &#xa;
                <mxCell id="MUeM2CI-ciQh2O1M9svH-8" value="m &amp;lt; b" style="rhombus;whiteSpace=wrap;html=1;" parent="MUeM2CI-ciQh2O1M9svH-1" vertex="1">
                    &#xa;
                    <mxGeometry x="360" y="250" width="80" height="80" as="geometry"/>
                    &#xa;
                </mxCell>
                &#xa;
                <mxCell id="MUeM2CI-ciQh2O1M9svH-9" value="YES" style="text;html=1;align=center;verticalAlign=middle;resizable=0;points=[];autosize=1;strokeColor=none;" parent="MUeM2CI-ciQh2O1M9svH-1" vertex="1">
                    &#xa;
                    <mxGeometry x="427.5" y="250" width="40" height="20" as="geometry"/>
                    &#xa;
                </mxCell>
                &#xa;
                <mxCell id="MUeM2CI-ciQh2O1M9svH-10" value="NO" style="text;html=1;align=center;verticalAlign=middle;resizable=0;points=[];autosize=1;strokeColor=none;" parent="MUeM2CI-ciQh2O1M9svH-1" vertex="1">
                    &#xa;
                    <mxGeometry x="337.5" y="250" width="30" height="20" as="geometry"/>
                    &#xa;
                </mxCell>
                &#xa;
                <mxCell id="MUeM2CI-ciQh2O1M9svH-15" value="END" style="ellipse;whiteSpace=wrap;html=1;" parent="MUeM2CI-ciQh2O1M9svH-1" vertex="1">
                    &#xa;
                    <mxGeometry x="267.5" y="750" width="170" height="50" as="geometry"/>
                    &#xa;
                </mxCell>
                &#xa;
                <mxCell id="fAQdRrOhez3WgfIAG_Cw-4" style="edgeStyle=orthogonalEdgeStyle;rounded=0;orthogonalLoop=1;jettySize=auto;html=1;exitX=0.5;exitY=1;exitDx=0;exitDy=0;entryX=0.5;entryY=0;entryDx=0;entryDy=0;" parent="MUeM2CI-ciQh2O1M9svH-1" source="fAQdRrOhez3WgfIAG_Cw-0" target="MUeM2CI-ciQh2O1M9svH-8" edge="1">
                    &#xa;
                    <mxGeometry relative="1" as="geometry"/>
                    &#xa;
                </mxCell>
                &#xa;
                <mxCell id="fAQdRrOhez3WgfIAG_Cw-0" value="m = a" style="rounded=0;whiteSpace=wrap;html=1;" parent="MUeM2CI-ciQh2O1M9svH-1" vertex="1">
                    &#xa;
                    <mxGeometry x="360" y="180" width="85" height="40" as="geometry"/>
                    &#xa;
                </mxCell>
                &#xa;
                <mxCell id="fAQdRrOhez3WgfIAG_Cw-15" style="edgeStyle=orthogonalEdgeStyle;rounded=0;orthogonalLoop=1;jettySize=auto;html=1;entryX=0.5;entryY=0;entryDx=0;entryDy=0;" parent="MUeM2CI-ciQh2O1M9svH-1" source="fAQdRrOhez3WgfIAG_Cw-9" target="fAQdRrOhez3WgfIAG_Cw-14" edge="1">
                    &#xa;
                    <mxGeometry relative="1" as="geometry"/>
                    &#xa;
                </mxCell>
                &#xa;
                <mxCell id="fAQdRrOhez3WgfIAG_Cw-19" style="edgeStyle=orthogonalEdgeStyle;rounded=0;orthogonalLoop=1;jettySize=auto;html=1;exitX=0;exitY=0.5;exitDx=0;exitDy=0;entryX=0.5;entryY=0;entryDx=0;entryDy=0;" parent="MUeM2CI-ciQh2O1M9svH-1" source="fAQdRrOhez3WgfIAG_Cw-9" target="fAQdRrOhez3WgfIAG_Cw-18" edge="1">
                    &#xa;
                    <mxGeometry relative="1" as="geometry"/>
                    &#xa;
                </mxCell>
                &#xa;
                <mxCell id="fAQdRrOhez3WgfIAG_Cw-9" value="m &amp;lt; c" style="rhombus;whiteSpace=wrap;html=1;" parent="MUeM2CI-ciQh2O1M9svH-1" vertex="1">
                    &#xa;
                    <mxGeometry x="312.5" y="480" width="80" height="80" as="geometry"/>
                    &#xa;
                </mxCell>
                &#xa;
                <mxCell id="fAQdRrOhez3WgfIAG_Cw-10" value="YES" style="text;html=1;align=center;verticalAlign=middle;resizable=0;points=[];autosize=1;strokeColor=none;" parent="MUeM2CI-ciQh2O1M9svH-1" vertex="1">
                    &#xa;
                    <mxGeometry x="374" y="480" width="40" height="20" as="geometry"/>
                    &#xa;
                </mxCell>
                &#xa;
                <mxCell id="fAQdRrOhez3WgfIAG_Cw-11" value="NO" style="text;html=1;align=center;verticalAlign=middle;resizable=0;points=[];autosize=1;strokeColor=none;" parent="MUeM2CI-ciQh2O1M9svH-1" vertex="1">
                    &#xa;
                    <mxGeometry x="300" y="480" width="30" height="20" as="geometry"/>
                    &#xa;
                </mxCell>
                &#xa;
                <mxCell id="fAQdRrOhez3WgfIAG_Cw-13" style="edgeStyle=orthogonalEdgeStyle;rounded=0;orthogonalLoop=1;jettySize=auto;html=1;entryX=0.5;entryY=0;entryDx=0;entryDy=0;" parent="MUeM2CI-ciQh2O1M9svH-1" source="fAQdRrOhez3WgfIAG_Cw-12" target="fAQdRrOhez3WgfIAG_Cw-9" edge="1">
                    &#xa;
                    <mxGeometry relative="1" as="geometry"/>
                    &#xa;
                </mxCell>
                &#xa;
                <mxCell id="fAQdRrOhez3WgfIAG_Cw-12" value="m = b" style="rounded=0;whiteSpace=wrap;html=1;" parent="MUeM2CI-ciQh2O1M9svH-1" vertex="1">
                    &#xa;
                    <mxGeometry x="470" y="360" width="90" height="60" as="geometry"/>
                    &#xa;
                </mxCell>
                &#xa;
                <mxCell id="fAQdRrOhez3WgfIAG_Cw-20" style="edgeStyle=orthogonalEdgeStyle;rounded=0;orthogonalLoop=1;jettySize=auto;html=1;entryX=0.5;entryY=0;entryDx=0;entryDy=0;" parent="MUeM2CI-ciQh2O1M9svH-1" source="fAQdRrOhez3WgfIAG_Cw-14" target="fAQdRrOhez3WgfIAG_Cw-18" edge="1">
                    &#xa;
                    <mxGeometry relative="1" as="geometry"/>
                    &#xa;
                </mxCell>
                &#xa;
                <mxCell id="fAQdRrOhez3WgfIAG_Cw-14" value="m = c" style="rounded=0;whiteSpace=wrap;html=1;" parent="MUeM2CI-ciQh2O1M9svH-1" vertex="1">
                    &#xa;
                    <mxGeometry x="427.5" y="580" width="90" height="60" as="geometry"/>
                    &#xa;
                </mxCell>
                &#xa;
                <mxCell id="fAQdRrOhez3WgfIAG_Cw-21" style="edgeStyle=orthogonalEdgeStyle;rounded=0;orthogonalLoop=1;jettySize=auto;html=1;entryX=0.5;entryY=0;entryDx=0;entryDy=0;" parent="MUeM2CI-ciQh2O1M9svH-1" source="fAQdRrOhez3WgfIAG_Cw-18" target="MUeM2CI-ciQh2O1M9svH-15" edge="1">
                    &#xa;
                    <mxGeometry relative="1" as="geometry"/>
                    &#xa;
                </mxCell>
                &#xa;
                <mxCell id="fAQdRrOhez3WgfIAG_Cw-18" value="Output&lt;br&gt;m" style="shape=parallelogram;perimeter=parallelogramPerimeter;whiteSpace=wrap;html=1;fixedSize=1;" parent="MUeM2CI-ciQh2O1M9svH-1" vertex="1">
                    &#xa;
                    <mxGeometry x="292.5" y="670" width="120" height="50" as="geometry"/>
                    &#xa;
                </mxCell>
                &#xa;
            </root>
            &#xa;
        </mxGraphModel>
        &#xa;
    </diagram>
    <diagram name="Lesson 4.2" id="tuuyC_YfkHhgxTrQQyuo">
        &#xa;
        <mxGraphModel dx="950" dy="680" grid="1" gridSize="10" guides="1" tooltips="1" connect="1" arrows="1" fold="1" page="1" pageScale="1" pageWidth="827" pageHeight="1169" background="#DAD2D8" math="0" shadow="0">
            &#xa;
            <root>
                &#xa;
                <mxCell id="cHEiO8Nt7OpbVcmDgLX5-0"/>
                &#xa;
                <mxCell id="cHEiO8Nt7OpbVcmDgLX5-1" parent="cHEiO8Nt7OpbVcmDgLX5-0"/>
                &#xa;
                <mxCell id="cHEiO8Nt7OpbVcmDgLX5-2" style="edgeStyle=orthogonalEdgeStyle;rounded=0;orthogonalLoop=1;jettySize=auto;html=1;entryX=0.5;entryY=0;entryDx=0;entryDy=0;labelBackgroundColor=#DAD2D8;strokeColor=#A8201A;fontColor=#143642;" parent="cHEiO8Nt7OpbVcmDgLX5-1" source="cHEiO8Nt7OpbVcmDgLX5-3" target="cHEiO8Nt7OpbVcmDgLX5-5" edge="1">
                    &#xa;
                    <mxGeometry relative="1" as="geometry"/>
                    &#xa;
                </mxCell>
                &#xa;
                <mxCell id="cHEiO8Nt7OpbVcmDgLX5-3" value="Beginning" style="ellipse;whiteSpace=wrap;html=1;fillColor=#FAE5C7;strokeColor=#0F8B8D;fontColor=#143642;" parent="cHEiO8Nt7OpbVcmDgLX5-1" vertex="1">
                    &#xa;
                    <mxGeometry x="320" y="20" width="170" height="50" as="geometry"/>
                    &#xa;
                </mxCell>
                &#xa;
                <mxCell id="cHEiO8Nt7OpbVcmDgLX5-40" style="edgeStyle=orthogonalEdgeStyle;curved=0;rounded=1;sketch=0;orthogonalLoop=1;jettySize=auto;html=1;exitX=0.5;exitY=1;exitDx=0;exitDy=0;entryX=0.5;entryY=0;entryDx=0;entryDy=0;strokeColor=#A8201A;fillColor=#FAE5C7;fontColor=#143642;" parent="cHEiO8Nt7OpbVcmDgLX5-1" source="cHEiO8Nt7OpbVcmDgLX5-5" target="cHEiO8Nt7OpbVcmDgLX5-8" edge="1">
                    &#xa;
                    <mxGeometry relative="1" as="geometry"/>
                    &#xa;
                </mxCell>
                &#xa;
                <mxCell id="cHEiO8Nt7OpbVcmDgLX5-5" value="Input&lt;br&gt;Please enter&lt;br&gt;a, b, c" style="shape=parallelogram;perimeter=parallelogramPerimeter;whiteSpace=wrap;html=1;fixedSize=1;fillColor=#FAE5C7;strokeColor=#0F8B8D;fontColor=#143642;" parent="cHEiO8Nt7OpbVcmDgLX5-1" vertex="1">
                    &#xa;
                    <mxGeometry x="345" y="100" width="120" height="40" as="geometry"/>
                    &#xa;
                </mxCell>
                &#xa;
                <mxCell id="cHEiO8Nt7OpbVcmDgLX5-30" style="edgeStyle=orthogonalEdgeStyle;curved=0;rounded=1;sketch=0;orthogonalLoop=1;jettySize=auto;html=1;entryX=0.5;entryY=0;entryDx=0;entryDy=0;strokeColor=#A8201A;fillColor=#FAE5C7;fontColor=#143642;" parent="cHEiO8Nt7OpbVcmDgLX5-1" source="cHEiO8Nt7OpbVcmDgLX5-8" target="cHEiO8Nt7OpbVcmDgLX5-25" edge="1">
                    &#xa;
                    <mxGeometry relative="1" as="geometry"/>
                    &#xa;
                </mxCell>
                &#xa;
                <mxCell id="cHEiO8Nt7OpbVcmDgLX5-35" style="edgeStyle=orthogonalEdgeStyle;curved=0;rounded=1;sketch=0;orthogonalLoop=1;jettySize=auto;html=1;entryX=0.5;entryY=0;entryDx=0;entryDy=0;strokeColor=#A8201A;fillColor=#FAE5C7;fontColor=#143642;" parent="cHEiO8Nt7OpbVcmDgLX5-1" source="cHEiO8Nt7OpbVcmDgLX5-8" target="cHEiO8Nt7OpbVcmDgLX5-31" edge="1">
                    &#xa;
                    <mxGeometry relative="1" as="geometry"/>
                    &#xa;
                </mxCell>
                &#xa;
                <mxCell id="cHEiO8Nt7OpbVcmDgLX5-8" value="a &amp;gt; b" style="rhombus;whiteSpace=wrap;html=1;fillColor=#FAE5C7;strokeColor=#0F8B8D;fontColor=#143642;" parent="cHEiO8Nt7OpbVcmDgLX5-1" vertex="1">
                    &#xa;
                    <mxGeometry x="366" y="160" width="80" height="80" as="geometry"/>
                    &#xa;
                </mxCell>
                &#xa;
                <mxCell id="cHEiO8Nt7OpbVcmDgLX5-9" value="YES" style="text;html=1;align=center;verticalAlign=middle;resizable=0;points=[];autosize=1;strokeColor=none;fontColor=#143642;" parent="cHEiO8Nt7OpbVcmDgLX5-1" vertex="1">
                    &#xa;
                    <mxGeometry x="422.5" y="160" width="40" height="20" as="geometry"/>
                    &#xa;
                </mxCell>
                &#xa;
                <mxCell id="cHEiO8Nt7OpbVcmDgLX5-10" value="NO" style="text;html=1;align=center;verticalAlign=middle;resizable=0;points=[];autosize=1;strokeColor=none;fontColor=#143642;" parent="cHEiO8Nt7OpbVcmDgLX5-1" vertex="1">
                    &#xa;
                    <mxGeometry x="353.5" y="160" width="30" height="20" as="geometry"/>
                    &#xa;
                </mxCell>
                &#xa;
                <mxCell id="cHEiO8Nt7OpbVcmDgLX5-11" value="END" style="ellipse;whiteSpace=wrap;html=1;fillColor=#FAE5C7;strokeColor=#0F8B8D;fontColor=#143642;" parent="cHEiO8Nt7OpbVcmDgLX5-1" vertex="1">
                    &#xa;
                    <mxGeometry x="292.5" y="470" width="170" height="50" as="geometry"/>
                    &#xa;
                </mxCell>
                &#xa;
                <mxCell id="cHEiO8Nt7OpbVcmDgLX5-29" style="edgeStyle=orthogonalEdgeStyle;curved=0;rounded=1;sketch=0;orthogonalLoop=1;jettySize=auto;html=1;strokeColor=#A8201A;fillColor=#FAE5C7;fontColor=#143642;" parent="cHEiO8Nt7OpbVcmDgLX5-1" source="cHEiO8Nt7OpbVcmDgLX5-25" edge="1">
                    &#xa;
                    <mxGeometry relative="1" as="geometry">
                        &#xa;
                        <mxPoint x="600" y="370" as="targetPoint"/>
                        &#xa;
                    </mxGeometry>
                    &#xa;
                </mxCell>
                &#xa;
                <mxCell id="cHEiO8Nt7OpbVcmDgLX5-52" style="edgeStyle=orthogonalEdgeStyle;curved=0;rounded=1;sketch=0;orthogonalLoop=1;jettySize=auto;html=1;strokeColor=#A8201A;fillColor=#FAE5C7;fontColor=#143642;entryX=0.313;entryY=0;entryDx=0;entryDy=0;entryPerimeter=0;" parent="cHEiO8Nt7OpbVcmDgLX5-1" source="cHEiO8Nt7OpbVcmDgLX5-25" target="cHEiO8Nt7OpbVcmDgLX5-51" edge="1">
                    &#xa;
                    <mxGeometry relative="1" as="geometry">
                        &#xa;
                        <mxPoint x="420" y="340" as="targetPoint"/>
                        &#xa;
                        <Array as="points">
                            &#xa;
                            <mxPoint x="420" y="300"/>
                            &#xa;
                        </Array>
                        &#xa;
                    </mxGeometry>
                    &#xa;
                </mxCell>
                &#xa;
                <mxCell id="cHEiO8Nt7OpbVcmDgLX5-25" value="a &amp;gt; c" style="rhombus;whiteSpace=wrap;html=1;fillColor=#FAE5C7;strokeColor=#0F8B8D;fontColor=#143642;" parent="cHEiO8Nt7OpbVcmDgLX5-1" vertex="1">
                    &#xa;
                    <mxGeometry x="462.5" y="260" width="80" height="80" as="geometry"/>
                    &#xa;
                </mxCell>
                &#xa;
                <mxCell id="cHEiO8Nt7OpbVcmDgLX5-26" value="YES" style="text;html=1;align=center;verticalAlign=middle;resizable=0;points=[];autosize=1;strokeColor=none;fontColor=#143642;" parent="cHEiO8Nt7OpbVcmDgLX5-1" vertex="1">
                    &#xa;
                    <mxGeometry x="524" y="260" width="40" height="20" as="geometry"/>
                    &#xa;
                </mxCell>
                &#xa;
                <mxCell id="cHEiO8Nt7OpbVcmDgLX5-27" value="NO" style="text;html=1;align=center;verticalAlign=middle;resizable=0;points=[];autosize=1;strokeColor=none;fontColor=#143642;" parent="cHEiO8Nt7OpbVcmDgLX5-1" vertex="1">
                    &#xa;
                    <mxGeometry x="450" y="260" width="30" height="20" as="geometry"/>
                    &#xa;
                </mxCell>
                &#xa;
                <mxCell id="cHEiO8Nt7OpbVcmDgLX5-45" style="edgeStyle=orthogonalEdgeStyle;curved=0;rounded=1;sketch=0;orthogonalLoop=1;jettySize=auto;html=1;entryX=1;entryY=0.5;entryDx=0;entryDy=0;strokeColor=#A8201A;fillColor=#FAE5C7;fontColor=#143642;" parent="cHEiO8Nt7OpbVcmDgLX5-1" source="cHEiO8Nt7OpbVcmDgLX5-28" target="cHEiO8Nt7OpbVcmDgLX5-11" edge="1">
                    &#xa;
                    <mxGeometry relative="1" as="geometry"/>
                    &#xa;
                </mxCell>
                &#xa;
                <mxCell id="cHEiO8Nt7OpbVcmDgLX5-28" value="Output&lt;br&gt;a" style="shape=parallelogram;perimeter=parallelogramPerimeter;whiteSpace=wrap;html=1;fixedSize=1;fillColor=#FAE5C7;strokeColor=#0F8B8D;fontColor=#143642;" parent="cHEiO8Nt7OpbVcmDgLX5-1" vertex="1">
                    &#xa;
                    <mxGeometry x="542.5" y="370" width="120" height="50" as="geometry"/>
                    &#xa;
                </mxCell>
                &#xa;
                <mxCell id="cHEiO8Nt7OpbVcmDgLX5-42" style="edgeStyle=orthogonalEdgeStyle;curved=0;rounded=1;sketch=0;orthogonalLoop=1;jettySize=auto;html=1;strokeColor=#A8201A;fillColor=#FAE5C7;fontColor=#143642;entryX=0.5;entryY=0;entryDx=0;entryDy=0;" parent="cHEiO8Nt7OpbVcmDgLX5-1" source="cHEiO8Nt7OpbVcmDgLX5-31" target="cHEiO8Nt7OpbVcmDgLX5-41" edge="1">
                    &#xa;
                    <mxGeometry relative="1" as="geometry">
                        &#xa;
                        <mxPoint x="220" y="350" as="targetPoint"/>
                        &#xa;
                        <Array as="points">
                            &#xa;
                            <mxPoint x="170" y="300"/>
                            &#xa;
                            <mxPoint x="170" y="350"/>
                            &#xa;
                            <mxPoint x="180" y="350"/>
                            &#xa;
                        </Array>
                        &#xa;
                    </mxGeometry>
                    &#xa;
                </mxCell>
                &#xa;
                <mxCell id="cHEiO8Nt7OpbVcmDgLX5-50" style="edgeStyle=orthogonalEdgeStyle;curved=0;rounded=1;sketch=0;orthogonalLoop=1;jettySize=auto;html=1;strokeColor=#A8201A;fillColor=#FAE5C7;fontColor=#143642;" parent="cHEiO8Nt7OpbVcmDgLX5-1" source="cHEiO8Nt7OpbVcmDgLX5-31" edge="1">
                    &#xa;
                    <mxGeometry relative="1" as="geometry">
                        &#xa;
                        <mxPoint x="379.9999999999999" y="350" as="targetPoint"/>
                        &#xa;
                    </mxGeometry>
                    &#xa;
                </mxCell>
                &#xa;
                <mxCell id="cHEiO8Nt7OpbVcmDgLX5-31" value="b &amp;gt; c" style="rhombus;whiteSpace=wrap;html=1;fillColor=#FAE5C7;strokeColor=#0F8B8D;fontColor=#143642;" parent="cHEiO8Nt7OpbVcmDgLX5-1" vertex="1">
                    &#xa;
                    <mxGeometry x="273.5" y="260" width="80" height="80" as="geometry"/>
                    &#xa;
                </mxCell>
                &#xa;
                <mxCell id="cHEiO8Nt7OpbVcmDgLX5-32" value="YES" style="text;html=1;align=center;verticalAlign=middle;resizable=0;points=[];autosize=1;strokeColor=none;fontColor=#143642;" parent="cHEiO8Nt7OpbVcmDgLX5-1" vertex="1">
                    &#xa;
                    <mxGeometry x="335" y="260" width="40" height="20" as="geometry"/>
                    &#xa;
                </mxCell>
                &#xa;
                <mxCell id="cHEiO8Nt7OpbVcmDgLX5-33" value="NO" style="text;html=1;align=center;verticalAlign=middle;resizable=0;points=[];autosize=1;strokeColor=none;fontColor=#143642;" parent="cHEiO8Nt7OpbVcmDgLX5-1" vertex="1">
                    &#xa;
                    <mxGeometry x="261" y="260" width="30" height="20" as="geometry"/>
                    &#xa;
                </mxCell>
                &#xa;
                <mxCell id="cHEiO8Nt7OpbVcmDgLX5-44" style="edgeStyle=orthogonalEdgeStyle;curved=0;rounded=1;sketch=0;orthogonalLoop=1;jettySize=auto;html=1;entryX=0.468;entryY=0;entryDx=0;entryDy=0;entryPerimeter=0;strokeColor=#A8201A;fillColor=#FAE5C7;fontColor=#143642;" parent="cHEiO8Nt7OpbVcmDgLX5-1" source="cHEiO8Nt7OpbVcmDgLX5-36" target="cHEiO8Nt7OpbVcmDgLX5-11" edge="1">
                    &#xa;
                    <mxGeometry relative="1" as="geometry"/>
                    &#xa;
                </mxCell>
                &#xa;
                <mxCell id="cHEiO8Nt7OpbVcmDgLX5-36" value="Output&lt;br&gt;b" style="shape=parallelogram;perimeter=parallelogramPerimeter;whiteSpace=wrap;html=1;fixedSize=1;fillColor=#FAE5C7;strokeColor=#0F8B8D;fontColor=#143642;" parent="cHEiO8Nt7OpbVcmDgLX5-1" vertex="1">
                    &#xa;
                    <mxGeometry x="273.5" y="350" width="120" height="50" as="geometry"/>
                    &#xa;
                </mxCell>
                &#xa;
                <mxCell id="cHEiO8Nt7OpbVcmDgLX5-46" style="edgeStyle=orthogonalEdgeStyle;curved=0;rounded=1;sketch=0;orthogonalLoop=1;jettySize=auto;html=1;entryX=0;entryY=0.5;entryDx=0;entryDy=0;strokeColor=#A8201A;fillColor=#FAE5C7;fontColor=#143642;" parent="cHEiO8Nt7OpbVcmDgLX5-1" source="cHEiO8Nt7OpbVcmDgLX5-41" target="cHEiO8Nt7OpbVcmDgLX5-11" edge="1">
                    &#xa;
                    <mxGeometry relative="1" as="geometry"/>
                    &#xa;
                </mxCell>
                &#xa;
                <mxCell id="cHEiO8Nt7OpbVcmDgLX5-41" value="Output&lt;br&gt;c" style="shape=parallelogram;perimeter=parallelogramPerimeter;whiteSpace=wrap;html=1;fixedSize=1;fillColor=#FAE5C7;strokeColor=#0F8B8D;fontColor=#143642;" parent="cHEiO8Nt7OpbVcmDgLX5-1" vertex="1">
                    &#xa;
                    <mxGeometry x="120" y="370" width="120" height="50" as="geometry"/>
                    &#xa;
                </mxCell>
                &#xa;
                <mxCell id="cHEiO8Nt7OpbVcmDgLX5-53" style="edgeStyle=orthogonalEdgeStyle;curved=0;rounded=1;sketch=0;orthogonalLoop=1;jettySize=auto;html=1;strokeColor=#A8201A;fillColor=#FAE5C7;fontColor=#143642;entryX=0.691;entryY=-0.02;entryDx=0;entryDy=0;entryPerimeter=0;" parent="cHEiO8Nt7OpbVcmDgLX5-1" source="cHEiO8Nt7OpbVcmDgLX5-51" target="cHEiO8Nt7OpbVcmDgLX5-11" edge="1">
                    &#xa;
                    <mxGeometry relative="1" as="geometry"/>
                    &#xa;
                </mxCell>
                &#xa;
                <mxCell id="cHEiO8Nt7OpbVcmDgLX5-51" value="Output&lt;br&gt;c" style="shape=parallelogram;perimeter=parallelogramPerimeter;whiteSpace=wrap;html=1;fixedSize=1;fillColor=#FAE5C7;strokeColor=#0F8B8D;fontColor=#143642;" parent="cHEiO8Nt7OpbVcmDgLX5-1" vertex="1">
                    &#xa;
                    <mxGeometry x="382.5" y="350" width="120" height="50" as="geometry"/>
                    &#xa;
                </mxCell>
                &#xa;
            </root>
            &#xa;
        </mxGraphModel>
        &#xa;
    </diagram>
    <diagram name="Lesson 4.3" id="yuYuoTQRjwpsZ3VCc82C">
        <mxGraphModel dx="810" dy="680" grid="1" gridSize="10" guides="1" tooltips="1" connect="1" arrows="1" fold="1" page="1" pageScale="1" pageWidth="827" pageHeight="1169" background="#DAD2D8" math="0" shadow="0">
            <root>
                <mxCell id="fXfBluhdf3EHjxfGkJEV-0"/>
                <mxCell id="fXfBluhdf3EHjxfGkJEV-1" parent="fXfBluhdf3EHjxfGkJEV-0"/>
                <mxCell id="fXfBluhdf3EHjxfGkJEV-2" style="edgeStyle=orthogonalEdgeStyle;rounded=0;orthogonalLoop=1;jettySize=auto;html=1;entryX=0.5;entryY=0;entryDx=0;entryDy=0;strokeColor=#A8201A;fontColor=#143642;labelBackgroundColor=#DAD2D8;" parent="fXfBluhdf3EHjxfGkJEV-1" source="fXfBluhdf3EHjxfGkJEV-3" target="fXfBluhdf3EHjxfGkJEV-5" edge="1">
                    <mxGeometry relative="1" as="geometry"/>
                </mxCell>
                <mxCell id="fXfBluhdf3EHjxfGkJEV-3" value="Beginning" style="ellipse;whiteSpace=wrap;html=1;fillColor=#FAE5C7;strokeColor=#0F8B8D;fontColor=#143642;" parent="fXfBluhdf3EHjxfGkJEV-1" vertex="1">
                    <mxGeometry x="320" y="20" width="170" height="50" as="geometry"/>
                </mxCell>
                <mxCell id="E5y2rQK9DUvg3UQ-7rDC-6" style="edgeStyle=orthogonalEdgeStyle;curved=0;rounded=1;sketch=0;orthogonalLoop=1;jettySize=auto;html=1;strokeColor=#A8201A;fillColor=#FAE5C7;fontColor=#143642;" parent="fXfBluhdf3EHjxfGkJEV-1" source="fXfBluhdf3EHjxfGkJEV-5" target="E5y2rQK9DUvg3UQ-7rDC-3" edge="1">
                    <mxGeometry relative="1" as="geometry"/>
                </mxCell>
                <mxCell id="fXfBluhdf3EHjxfGkJEV-5" value="Input&lt;br&gt;Please enter&lt;br&gt;number" style="shape=parallelogram;perimeter=parallelogramPerimeter;whiteSpace=wrap;html=1;fixedSize=1;fillColor=#FAE5C7;strokeColor=#0F8B8D;fontColor=#143642;" parent="fXfBluhdf3EHjxfGkJEV-1" vertex="1">
                    <mxGeometry x="345" y="100" width="120" height="40" as="geometry"/>
                </mxCell>
                <mxCell id="9Uvejaq3pHsjWqsg48sp-0" style="edgeStyle=orthogonalEdgeStyle;curved=0;rounded=1;sketch=0;orthogonalLoop=1;jettySize=auto;html=1;entryX=0.5;entryY=0;entryDx=0;entryDy=0;strokeColor=#A8201A;fillColor=#FAE5C7;fontColor=#143642;" parent="fXfBluhdf3EHjxfGkJEV-1" source="fXfBluhdf3EHjxfGkJEV-8" edge="1">
                    <mxGeometry relative="1" as="geometry">
                        <mxPoint x="525.75" y="360" as="targetPoint"/>
                    </mxGeometry>
                </mxCell>
                <mxCell id="9Uvejaq3pHsjWqsg48sp-1" style="edgeStyle=orthogonalEdgeStyle;curved=0;rounded=1;sketch=0;orthogonalLoop=1;jettySize=auto;html=1;entryX=0.5;entryY=0;entryDx=0;entryDy=0;strokeColor=#A8201A;fillColor=#FAE5C7;fontColor=#143642;" parent="fXfBluhdf3EHjxfGkJEV-1" source="fXfBluhdf3EHjxfGkJEV-8" target="fXfBluhdf3EHjxfGkJEV-21" edge="1">
                    <mxGeometry relative="1" as="geometry"/>
                </mxCell>
                <mxCell id="fXfBluhdf3EHjxfGkJEV-8" value="ans == 'b'" style="rhombus;whiteSpace=wrap;html=1;fillColor=#FAE5C7;strokeColor=#0F8B8D;fontColor=#143642;" parent="fXfBluhdf3EHjxfGkJEV-1" vertex="1">
                    <mxGeometry x="365.5" y="270" width="80" height="80" as="geometry"/>
                </mxCell>
                <mxCell id="fXfBluhdf3EHjxfGkJEV-9" value="YES" style="text;html=1;align=center;verticalAlign=middle;resizable=0;points=[];autosize=1;strokeColor=none;fontColor=#143642;" parent="fXfBluhdf3EHjxfGkJEV-1" vertex="1">
                    <mxGeometry x="422" y="270" width="40" height="20" as="geometry"/>
                </mxCell>
                <mxCell id="fXfBluhdf3EHjxfGkJEV-10" value="NO" style="text;html=1;align=center;verticalAlign=middle;resizable=0;points=[];autosize=1;strokeColor=none;fontColor=#143642;" parent="fXfBluhdf3EHjxfGkJEV-1" vertex="1">
                    <mxGeometry x="353" y="270" width="30" height="20" as="geometry"/>
                </mxCell>
                <mxCell id="fXfBluhdf3EHjxfGkJEV-11" value="END" style="ellipse;whiteSpace=wrap;html=1;fillColor=#FAE5C7;strokeColor=#0F8B8D;fontColor=#143642;" parent="fXfBluhdf3EHjxfGkJEV-1" vertex="1">
                    <mxGeometry x="301.75" y="570" width="170" height="50" as="geometry"/>
                </mxCell>
                <mxCell id="9Uvejaq3pHsjWqsg48sp-2" style="edgeStyle=orthogonalEdgeStyle;curved=0;rounded=1;sketch=0;orthogonalLoop=1;jettySize=auto;html=1;strokeColor=#A8201A;fillColor=#FAE5C7;fontColor=#143642;" parent="fXfBluhdf3EHjxfGkJEV-1" source="fXfBluhdf3EHjxfGkJEV-21" edge="1">
                    <mxGeometry relative="1" as="geometry">
                        <mxPoint x="368" y="450" as="targetPoint"/>
                    </mxGeometry>
                </mxCell>
                <mxCell id="9Uvejaq3pHsjWqsg48sp-3" style="edgeStyle=orthogonalEdgeStyle;curved=0;rounded=1;sketch=0;orthogonalLoop=1;jettySize=auto;html=1;entryX=0.5;entryY=0;entryDx=0;entryDy=0;strokeColor=#A8201A;fillColor=#FAE5C7;fontColor=#143642;" parent="fXfBluhdf3EHjxfGkJEV-1" source="fXfBluhdf3EHjxfGkJEV-21" target="fXfBluhdf3EHjxfGkJEV-27" edge="1">
                    <mxGeometry relative="1" as="geometry"/>
                </mxCell>
                <mxCell id="fXfBluhdf3EHjxfGkJEV-21" value="ans == 'k'" style="rhombus;whiteSpace=wrap;html=1;fillColor=#FAE5C7;strokeColor=#0F8B8D;fontColor=#143642;" parent="fXfBluhdf3EHjxfGkJEV-1" vertex="1">
                    <mxGeometry x="264" y="350" width="80" height="80" as="geometry"/>
                </mxCell>
                <mxCell id="fXfBluhdf3EHjxfGkJEV-22" value="YES" style="text;html=1;align=center;verticalAlign=middle;resizable=0;points=[];autosize=1;strokeColor=none;fontColor=#143642;" parent="fXfBluhdf3EHjxfGkJEV-1" vertex="1">
                    <mxGeometry x="325.5" y="350" width="40" height="20" as="geometry"/>
                </mxCell>
                <mxCell id="fXfBluhdf3EHjxfGkJEV-23" value="NO" style="text;html=1;align=center;verticalAlign=middle;resizable=0;points=[];autosize=1;strokeColor=none;fontColor=#143642;" parent="fXfBluhdf3EHjxfGkJEV-1" vertex="1">
                    <mxGeometry x="251.5" y="350" width="30" height="20" as="geometry"/>
                </mxCell>
                <mxCell id="9Uvejaq3pHsjWqsg48sp-5" style="edgeStyle=orthogonalEdgeStyle;curved=0;rounded=1;sketch=0;orthogonalLoop=1;jettySize=auto;html=1;entryX=0.5;entryY=0;entryDx=0;entryDy=0;strokeColor=#A8201A;fillColor=#FAE5C7;fontColor=#143642;" parent="fXfBluhdf3EHjxfGkJEV-1" source="fXfBluhdf3EHjxfGkJEV-25" target="fXfBluhdf3EHjxfGkJEV-11" edge="1">
                    <mxGeometry relative="1" as="geometry"/>
                </mxCell>
                <mxCell id="fXfBluhdf3EHjxfGkJEV-25" value="Output&lt;br&gt;ans /1024" style="shape=parallelogram;perimeter=parallelogramPerimeter;whiteSpace=wrap;html=1;fixedSize=1;fillColor=#FAE5C7;strokeColor=#0F8B8D;fontColor=#143642;" parent="fXfBluhdf3EHjxfGkJEV-1" vertex="1">
                    <mxGeometry x="288" y="450" width="150" height="50" as="geometry"/>
                </mxCell>
                <mxCell id="9Uvejaq3pHsjWqsg48sp-6" style="edgeStyle=orthogonalEdgeStyle;curved=0;rounded=1;sketch=0;orthogonalLoop=1;jettySize=auto;html=1;entryX=0;entryY=0.5;entryDx=0;entryDy=0;strokeColor=#A8201A;fillColor=#FAE5C7;fontColor=#143642;" parent="fXfBluhdf3EHjxfGkJEV-1" source="fXfBluhdf3EHjxfGkJEV-27" target="fXfBluhdf3EHjxfGkJEV-11" edge="1">
                    <mxGeometry relative="1" as="geometry"/>
                </mxCell>
                <mxCell id="fXfBluhdf3EHjxfGkJEV-27" value="Output&lt;br&gt;'Wrong input'" style="shape=parallelogram;perimeter=parallelogramPerimeter;whiteSpace=wrap;html=1;fixedSize=1;fillColor=#FAE5C7;strokeColor=#0F8B8D;fontColor=#143642;" parent="fXfBluhdf3EHjxfGkJEV-1" vertex="1">
                    <mxGeometry x="118" y="440" width="120" height="50" as="geometry"/>
                </mxCell>
                <mxCell id="9Uvejaq3pHsjWqsg48sp-4" style="edgeStyle=orthogonalEdgeStyle;curved=0;rounded=1;sketch=0;orthogonalLoop=1;jettySize=auto;html=1;entryX=1;entryY=0;entryDx=0;entryDy=0;strokeColor=#A8201A;fillColor=#FAE5C7;fontColor=#143642;" parent="fXfBluhdf3EHjxfGkJEV-1" source="fXfBluhdf3EHjxfGkJEV-29" target="fXfBluhdf3EHjxfGkJEV-11" edge="1">
                    <mxGeometry relative="1" as="geometry"/>
                </mxCell>
                <mxCell id="fXfBluhdf3EHjxfGkJEV-29" value="Output&lt;br&gt;ans * 1024" style="shape=parallelogram;perimeter=parallelogramPerimeter;whiteSpace=wrap;html=1;fixedSize=1;fillColor=#FAE5C7;strokeColor=#0F8B8D;fontColor=#143642;" parent="fXfBluhdf3EHjxfGkJEV-1" vertex="1">
                    <mxGeometry x="438" y="360" width="144" height="50" as="geometry"/>
                </mxCell>
                <mxCell id="9Uvejaq3pHsjWqsg48sp-7" style="edgeStyle=orthogonalEdgeStyle;curved=0;rounded=1;sketch=0;orthogonalLoop=1;jettySize=auto;html=1;entryX=0.5;entryY=0;entryDx=0;entryDy=0;strokeColor=#A8201A;fillColor=#FAE5C7;fontColor=#143642;" parent="fXfBluhdf3EHjxfGkJEV-1" source="E5y2rQK9DUvg3UQ-7rDC-3" target="fXfBluhdf3EHjxfGkJEV-8" edge="1">
                    <mxGeometry relative="1" as="geometry"/>
                </mxCell>
                <mxCell id="E5y2rQK9DUvg3UQ-7rDC-3" value="Input&lt;br&gt;Please enter&lt;br&gt;k for kilobites or b for bites" style="shape=parallelogram;perimeter=parallelogramPerimeter;whiteSpace=wrap;html=1;fixedSize=1;fillColor=#FAE5C7;strokeColor=#0F8B8D;fontColor=#143642;" parent="fXfBluhdf3EHjxfGkJEV-1" vertex="1">
                    <mxGeometry x="318.75" y="170" width="172.5" height="70" as="geometry"/>
                </mxCell>
            </root>
        </mxGraphModel>
    </diagram>
</mxfile>